<svg xmlns="http://www.w3.org/2000/svg" xmlns:xlink="http://www.w3.org/1999/xlink" width="500" zoomAndPan="magnify" viewBox="0 0 375 374.999991" height="500" preserveAspectRatio="xMidYMid meet" version="1.2"><defs><clipPath id="d28d6e7a97"><path d="M 108.996094 158.082031 L 141.996094 158.082031 L 141.996094 191.082031 L 108.996094 191.082031 Z M 108.996094 158.082031 "/></clipPath></defs><g id="f0a3f0041a"><g style="fill:#000000;fill-opacity:1;"><g transform="translate(36.561762, 195.583902)"><path style="stroke:none" d="M 9.546875 0.234375 C 8.523438 0.234375 7.550781 0.0859375 6.625 -0.203125 C 5.707031 -0.503906 4.875 -0.890625 4.125 -1.359375 C 3.375 -1.828125 2.722656 -2.34375 2.171875 -2.90625 C 1.617188 -3.46875 1.195312 -4.007812 0.90625 -4.53125 L 1.625 -7.203125 L 1.859375 -7.203125 C 2.484375 -5.859375 3.191406 -4.65625 3.984375 -3.59375 C 4.328125 -3.132812 4.703125 -2.691406 5.109375 -2.265625 C 5.523438 -1.835938 5.960938 -1.457031 6.421875 -1.125 C 6.878906 -0.789062 7.367188 -0.519531 7.890625 -0.3125 C 8.410156 -0.101562 8.960938 0 9.546875 0 C 9.859375 0 10.285156 -0.0546875 10.828125 -0.171875 C 11.367188 -0.296875 11.898438 -0.503906 12.421875 -0.796875 C 12.941406 -1.085938 13.382812 -1.476562 13.75 -1.96875 C 14.125 -2.457031 14.3125 -3.0625 14.3125 -3.78125 C 14.3125 -4.5 14.132812 -5.15625 13.78125 -5.75 C 13.4375 -6.351562 12.988281 -6.894531 12.4375 -7.375 C 11.882812 -7.851562 11.257812 -8.273438 10.5625 -8.640625 C 9.863281 -9.015625 9.171875 -9.320312 8.484375 -9.5625 C 7.703125 -9.84375 6.953125 -10.164062 6.234375 -10.53125 C 5.515625 -10.90625 4.875 -11.347656 4.3125 -11.859375 C 3.757812 -12.367188 3.316406 -12.957031 2.984375 -13.625 C 2.648438 -14.300781 2.484375 -15.0625 2.484375 -15.90625 C 2.484375 -16.71875 2.644531 -17.457031 2.96875 -18.125 C 3.289062 -18.800781 3.722656 -19.375 4.265625 -19.84375 C 4.816406 -20.3125 5.457031 -20.675781 6.1875 -20.9375 C 6.925781 -21.195312 7.703125 -21.328125 8.515625 -21.328125 C 9.535156 -21.328125 10.421875 -21.222656 11.171875 -21.015625 C 11.921875 -20.804688 12.570312 -20.519531 13.125 -20.15625 C 13.675781 -19.800781 14.140625 -19.382812 14.515625 -18.90625 C 14.898438 -18.4375 15.242188 -17.945312 15.546875 -17.4375 L 14.8125 -14.796875 L 14.546875 -14.796875 C 14.210938 -15.953125 13.773438 -16.988281 13.234375 -17.90625 C 12.992188 -18.289062 12.722656 -18.671875 12.421875 -19.046875 C 12.117188 -19.429688 11.769531 -19.769531 11.375 -20.0625 C 10.988281 -20.363281 10.554688 -20.601562 10.078125 -20.78125 C 9.597656 -20.96875 9.078125 -21.0625 8.515625 -21.0625 C 8.179688 -21.0625 7.742188 -21 7.203125 -20.875 C 6.660156 -20.757812 6.132812 -20.554688 5.625 -20.265625 C 5.113281 -19.972656 4.664062 -19.582031 4.28125 -19.09375 C 3.90625 -18.601562 3.71875 -18 3.71875 -17.28125 C 3.71875 -16.5625 3.890625 -15.898438 4.234375 -15.296875 C 4.585938 -14.703125 5.039062 -14.160156 5.59375 -13.671875 C 6.144531 -13.191406 6.769531 -12.769531 7.46875 -12.40625 C 8.164062 -12.050781 8.863281 -11.753906 9.5625 -11.515625 C 10.34375 -11.234375 11.09375 -10.898438 11.8125 -10.515625 C 12.539062 -10.140625 13.179688 -9.695312 13.734375 -9.1875 C 14.296875 -8.6875 14.738281 -8.101562 15.0625 -7.4375 C 15.394531 -6.78125 15.5625 -6.03125 15.5625 -5.1875 C 15.5625 -4.363281 15.398438 -3.617188 15.078125 -2.953125 C 14.765625 -2.285156 14.328125 -1.71875 13.765625 -1.25 C 13.210938 -0.78125 12.566406 -0.414062 11.828125 -0.15625 C 11.097656 0.101562 10.335938 0.234375 9.546875 0.234375 Z M 9.546875 0.234375 "/></g></g><g style="fill:#000000;fill-opacity:1;"><g transform="translate(53.031743, 195.583902)"><path style="stroke:none" d="M 18 -18.515625 L 17.734375 -18.515625 C 17.285156 -18.992188 16.851562 -19.378906 16.4375 -19.671875 C 16.019531 -19.972656 15.539062 -20.203125 15 -20.359375 C 14.457031 -20.523438 13.828125 -20.640625 13.109375 -20.703125 C 12.390625 -20.765625 11.519531 -20.796875 10.5 -20.796875 L 10.5 -2.578125 C 10.5 -2.097656 10.523438 -1.703125 10.578125 -1.390625 C 10.628906 -1.085938 10.691406 -0.851562 10.765625 -0.6875 C 10.847656 -0.53125 10.925781 -0.421875 11 -0.359375 C 11.082031 -0.296875 11.144531 -0.265625 11.1875 -0.265625 L 11.1875 0 L 7.6875 0 L 7.6875 -0.265625 C 7.71875 -0.265625 7.773438 -0.296875 7.859375 -0.359375 C 7.941406 -0.421875 8.015625 -0.53125 8.078125 -0.6875 C 8.148438 -0.851562 8.21875 -1.085938 8.28125 -1.390625 C 8.34375 -1.703125 8.375 -2.097656 8.375 -2.578125 L 8.375 -20.796875 C 7.351562 -20.796875 6.484375 -20.765625 5.765625 -20.703125 C 5.046875 -20.640625 4.421875 -20.523438 3.890625 -20.359375 C 3.359375 -20.203125 2.878906 -19.972656 2.453125 -19.671875 C 2.035156 -19.378906 1.609375 -18.992188 1.171875 -18.515625 L 0.90625 -18.515625 L 0.90625 -21.0625 L 18 -21.0625 Z M 18 -18.515625 "/></g></g><g style="fill:#000000;fill-opacity:1;"><g transform="translate(71.931728, 195.583902)"><path style="stroke:none" d="M 13.796875 -3.9375 C 13.578125 -4.59375 13.28125 -5.234375 12.90625 -5.859375 C 12.539062 -6.492188 12.109375 -7.0625 11.609375 -7.5625 C 11.109375 -8.0625 10.546875 -8.472656 9.921875 -8.796875 C 9.304688 -9.128906 8.628906 -9.335938 7.890625 -9.421875 C 7.609375 -9.441406 7.316406 -9.4375 7.015625 -9.40625 C 6.710938 -9.375 6.421875 -9.304688 6.140625 -9.203125 C 5.867188 -9.109375 5.617188 -8.96875 5.390625 -8.78125 C 5.160156 -8.601562 4.992188 -8.363281 4.890625 -8.0625 L 3.421875 -3.6875 C 3.015625 -2.550781 2.816406 -1.695312 2.828125 -1.125 C 2.835938 -0.550781 3.046875 -0.265625 3.453125 -0.265625 L 3.453125 0 L 0.90625 0 L 0.90625 -0.265625 C 1.019531 -0.265625 1.15625 -0.316406 1.3125 -0.421875 C 1.476562 -0.535156 1.65625 -0.726562 1.84375 -1 C 2.03125 -1.269531 2.234375 -1.628906 2.453125 -2.078125 C 2.679688 -2.535156 2.914062 -3.101562 3.15625 -3.78125 L 8.484375 -19.40625 L 7.921875 -21.0625 L 10.203125 -21.0625 L 15.9375 -4.34375 C 16.132812 -3.789062 16.328125 -3.265625 16.515625 -2.765625 C 16.703125 -2.265625 16.878906 -1.828125 17.046875 -1.453125 C 17.222656 -1.085938 17.378906 -0.796875 17.515625 -0.578125 C 17.660156 -0.367188 17.789062 -0.265625 17.90625 -0.265625 L 17.90625 0 L 14.40625 0 L 14.40625 -0.265625 C 14.5 -0.265625 14.53125 -0.546875 14.5 -1.109375 C 14.46875 -1.671875 14.316406 -2.367188 14.046875 -3.203125 Z M 5.21875 -8.96875 C 5.5625 -9.289062 5.984375 -9.492188 6.484375 -9.578125 C 6.984375 -9.671875 7.453125 -9.695312 7.890625 -9.65625 C 9.023438 -9.5625 10.023438 -9.179688 10.890625 -8.515625 C 11.753906 -7.859375 12.472656 -7.070312 13.046875 -6.15625 L 8.640625 -18.984375 Z M 5.21875 -8.96875 "/></g></g><g style="fill:#000000;fill-opacity:1;"><g transform="translate(90.741705, 195.583902)"><path style="stroke:none" d="M 13.734375 -4.234375 C 14.054688 -3.671875 14.363281 -3.148438 14.65625 -2.671875 C 14.945312 -2.191406 15.210938 -1.769531 15.453125 -1.40625 C 15.691406 -1.050781 15.894531 -0.769531 16.0625 -0.5625 C 16.226562 -0.363281 16.375 -0.265625 16.5 -0.265625 L 16.5 0 L 12.984375 0 L 12.984375 -0.265625 C 13.109375 -0.265625 13.0625 -0.570312 12.84375 -1.1875 C 12.625 -1.8125 12.234375 -2.601562 11.671875 -3.5625 L 7.109375 -11.453125 L 3.71875 -11.453125 L 3.71875 -2.578125 C 3.71875 -2.097656 3.742188 -1.703125 3.796875 -1.390625 C 3.847656 -1.085938 3.910156 -0.851562 3.984375 -0.6875 C 4.066406 -0.53125 4.144531 -0.421875 4.21875 -0.359375 C 4.300781 -0.296875 4.363281 -0.265625 4.40625 -0.265625 L 4.40625 0 L 0.90625 0 L 0.90625 -0.265625 C 0.9375 -0.265625 0.992188 -0.296875 1.078125 -0.359375 C 1.160156 -0.421875 1.234375 -0.53125 1.296875 -0.6875 C 1.367188 -0.851562 1.4375 -1.085938 1.5 -1.390625 C 1.5625 -1.703125 1.59375 -2.097656 1.59375 -2.578125 L 1.59375 -18.484375 C 1.59375 -18.984375 1.5625 -19.378906 1.5 -19.671875 C 1.4375 -19.972656 1.367188 -20.203125 1.296875 -20.359375 C 1.234375 -20.523438 1.160156 -20.640625 1.078125 -20.703125 C 0.992188 -20.765625 0.9375 -20.796875 0.90625 -20.796875 L 0.90625 -21.0625 L 1.171875 -21.0625 C 2.066406 -21.082031 2.992188 -21.140625 3.953125 -21.234375 C 4.921875 -21.335938 5.84375 -21.390625 6.71875 -21.390625 C 8.238281 -21.390625 9.519531 -21.265625 10.5625 -21.015625 C 11.601562 -20.765625 12.441406 -20.414062 13.078125 -19.96875 C 13.722656 -19.53125 14.179688 -19.003906 14.453125 -18.390625 C 14.734375 -17.785156 14.875 -17.125 14.875 -16.40625 C 14.875 -15.8125 14.78125 -15.253906 14.59375 -14.734375 C 14.40625 -14.210938 14.09375 -13.738281 13.65625 -13.3125 C 13.226562 -12.894531 12.671875 -12.539062 11.984375 -12.25 C 11.296875 -11.957031 10.460938 -11.742188 9.484375 -11.609375 Z M 3.71875 -20.96875 L 3.71875 -11.703125 L 6.71875 -11.703125 C 7.375 -11.703125 8.054688 -11.769531 8.765625 -11.90625 C 9.484375 -12.050781 10.132812 -12.300781 10.71875 -12.65625 C 11.3125 -13.019531 11.800781 -13.503906 12.1875 -14.109375 C 12.582031 -14.722656 12.78125 -15.488281 12.78125 -16.40625 C 12.78125 -17.332031 12.582031 -18.097656 12.1875 -18.703125 C 11.800781 -19.316406 11.3125 -19.800781 10.71875 -20.15625 C 10.132812 -20.519531 9.484375 -20.773438 8.765625 -20.921875 C 8.054688 -21.078125 7.375 -21.15625 6.71875 -21.15625 C 6.257812 -21.15625 5.773438 -21.132812 5.265625 -21.09375 C 4.753906 -21.050781 4.238281 -21.007812 3.71875 -20.96875 Z M 3.71875 -20.96875 "/></g></g><g style="fill:#000000;fill-opacity:1;"><g transform="translate(108.141691, 195.583902)"><path style="stroke:none" d="M 4.4375 -20.765625 C 4.394531 -20.765625 4.332031 -20.734375 4.25 -20.671875 C 4.175781 -20.609375 4.097656 -20.492188 4.015625 -20.328125 C 3.941406 -20.171875 3.878906 -19.941406 3.828125 -19.640625 C 3.773438 -19.347656 3.75 -18.953125 3.75 -18.453125 L 3.75 -0.265625 L 7.140625 -0.265625 C 7.878906 -0.347656 8.550781 -0.457031 9.15625 -0.59375 C 9.769531 -0.738281 10.332031 -0.90625 10.84375 -1.09375 C 11.351562 -1.28125 11.832031 -1.492188 12.28125 -1.734375 C 12.726562 -1.972656 13.1875 -2.234375 13.65625 -2.515625 L 13.921875 -2.515625 L 13.921875 0.03125 L 11.34375 0.03125 L 10.5625 0 L 0.90625 0 L 0.90625 -0.265625 C 0.9375 -0.265625 0.992188 -0.289062 1.078125 -0.34375 C 1.160156 -0.394531 1.234375 -0.503906 1.296875 -0.671875 C 1.367188 -0.847656 1.4375 -1.082031 1.5 -1.375 C 1.5625 -1.675781 1.59375 -2.078125 1.59375 -2.578125 L 1.59375 -18.453125 C 1.59375 -18.953125 1.5625 -19.347656 1.5 -19.640625 C 1.4375 -19.941406 1.367188 -20.171875 1.296875 -20.328125 C 1.234375 -20.492188 1.160156 -20.609375 1.078125 -20.671875 C 0.992188 -20.734375 0.9375 -20.765625 0.90625 -20.765625 L 0.90625 -21.03125 L 4.4375 -21.03125 Z M 4.4375 -20.765625 "/></g></g><g style="fill:#000000;fill-opacity:1;"><g transform="translate(122.961674, 195.583902)"><path style="stroke:none" d="M 4.4375 -20.796875 C 4.375 -20.796875 4.300781 -20.765625 4.21875 -20.703125 C 4.144531 -20.640625 4.070312 -20.523438 4 -20.359375 C 3.9375 -20.203125 3.875 -19.972656 3.8125 -19.671875 C 3.75 -19.378906 3.71875 -18.984375 3.71875 -18.484375 L 3.71875 -2.578125 C 3.71875 -2.097656 3.75 -1.703125 3.8125 -1.390625 C 3.875 -1.085938 3.9375 -0.851562 4 -0.6875 C 4.070312 -0.53125 4.144531 -0.421875 4.21875 -0.359375 C 4.300781 -0.296875 4.375 -0.265625 4.4375 -0.265625 L 4.4375 0 L 0.90625 0 L 0.90625 -0.265625 C 0.9375 -0.265625 0.992188 -0.296875 1.078125 -0.359375 C 1.160156 -0.421875 1.234375 -0.53125 1.296875 -0.6875 C 1.367188 -0.851562 1.4375 -1.085938 1.5 -1.390625 C 1.5625 -1.703125 1.59375 -2.097656 1.59375 -2.578125 L 1.59375 -18.484375 C 1.59375 -18.984375 1.5625 -19.378906 1.5 -19.671875 C 1.4375 -19.972656 1.367188 -20.203125 1.296875 -20.359375 C 1.234375 -20.523438 1.160156 -20.640625 1.078125 -20.703125 C 0.992188 -20.765625 0.9375 -20.796875 0.90625 -20.796875 L 0.90625 -21.0625 L 4.4375 -21.0625 Z M 4.4375 -20.796875 "/></g></g><g style="fill:#000000;fill-opacity:1;"><g transform="translate(128.30167, 195.583902)"><path style="stroke:none" d="M 18.9375 -6.875 C 18.9375 -7.53125 18.832031 -8.046875 18.625 -8.421875 C 18.425781 -8.804688 18.175781 -9.09375 17.875 -9.28125 C 17.582031 -9.46875 17.242188 -9.59375 16.859375 -9.65625 C 16.484375 -9.71875 16.101562 -9.75 15.71875 -9.75 L 13.796875 -9.75 L 13.796875 -10.015625 L 21.75 -10.015625 L 21.75 -9.75 C 21.59375 -9.75 21.476562 -9.65625 21.40625 -9.46875 C 21.332031 -9.289062 21.28125 -9.066406 21.25 -8.796875 C 21.21875 -8.535156 21.191406 -8.253906 21.171875 -7.953125 C 21.160156 -7.648438 21.125 -7.378906 21.0625 -7.140625 C 20.695312 -5.515625 20.019531 -4.160156 19.03125 -3.078125 C 18.039062 -2.003906 16.890625 -1.195312 15.578125 -0.65625 C 14.273438 -0.113281 12.882812 0.140625 11.40625 0.109375 C 9.925781 0.078125 8.515625 -0.226562 7.171875 -0.8125 C 5.828125 -1.394531 4.625 -2.265625 3.5625 -3.421875 C 2.507812 -4.578125 1.753906 -6.023438 1.296875 -7.765625 C 0.910156 -9.191406 0.816406 -10.601562 1.015625 -12 C 1.210938 -13.394531 1.648438 -14.679688 2.328125 -15.859375 C 3.015625 -17.046875 3.910156 -18.070312 5.015625 -18.9375 C 6.128906 -19.8125 7.394531 -20.4375 8.8125 -20.8125 C 9.832031 -21.09375 10.851562 -21.210938 11.875 -21.171875 C 12.894531 -21.140625 13.875 -20.972656 14.8125 -20.671875 C 15.757812 -20.367188 16.644531 -19.941406 17.46875 -19.390625 C 18.300781 -18.835938 19.039062 -18.1875 19.6875 -17.4375 L 18.953125 -14.796875 L 18.6875 -14.796875 C 18.226562 -15.710938 17.65625 -16.582031 16.96875 -17.40625 C 16.289062 -18.238281 15.53125 -18.9375 14.6875 -19.5 C 13.851562 -20.0625 12.945312 -20.453125 11.96875 -20.671875 C 10.988281 -20.890625 9.957031 -20.859375 8.875 -20.578125 C 7.582031 -20.234375 6.515625 -19.625 5.671875 -18.75 C 4.828125 -17.875 4.1875 -16.859375 3.75 -15.703125 C 3.3125 -14.554688 3.066406 -13.332031 3.015625 -12.03125 C 2.960938 -10.726562 3.085938 -9.5 3.390625 -8.34375 C 3.785156 -6.863281 4.378906 -5.601562 5.171875 -4.5625 C 5.960938 -3.519531 6.859375 -2.679688 7.859375 -2.046875 C 8.859375 -1.421875 9.921875 -1.003906 11.046875 -0.796875 C 12.179688 -0.585938 13.289062 -0.582031 14.375 -0.78125 C 15.394531 -1 16.203125 -1.332031 16.796875 -1.78125 C 17.398438 -2.226562 17.851562 -2.738281 18.15625 -3.3125 C 18.46875 -3.882812 18.675781 -4.476562 18.78125 -5.09375 C 18.882812 -5.71875 18.9375 -6.3125 18.9375 -6.875 Z M 18.9375 -6.875 "/></g></g><g style="fill:#000000;fill-opacity:1;"><g transform="translate(150.951643, 195.583902)"><path style="stroke:none" d="M 16.40625 -20.796875 C 16.363281 -20.796875 16.300781 -20.765625 16.21875 -20.703125 C 16.144531 -20.640625 16.066406 -20.523438 15.984375 -20.359375 C 15.910156 -20.203125 15.847656 -19.972656 15.796875 -19.671875 C 15.742188 -19.378906 15.71875 -18.984375 15.71875 -18.484375 L 15.71875 -2.578125 C 15.71875 -2.097656 15.742188 -1.703125 15.796875 -1.390625 C 15.847656 -1.085938 15.910156 -0.851562 15.984375 -0.6875 C 16.066406 -0.53125 16.144531 -0.421875 16.21875 -0.359375 C 16.300781 -0.296875 16.363281 -0.265625 16.40625 -0.265625 L 16.40625 0 L 12.875 0 L 12.875 -0.265625 C 12.914062 -0.265625 12.972656 -0.296875 13.046875 -0.359375 C 13.128906 -0.421875 13.203125 -0.53125 13.265625 -0.6875 C 13.335938 -0.851562 13.40625 -1.085938 13.46875 -1.390625 C 13.53125 -1.703125 13.5625 -2.097656 13.5625 -2.578125 L 13.5625 -12.359375 L 3.71875 -12.359375 L 3.71875 -2.578125 C 3.71875 -2.097656 3.742188 -1.703125 3.796875 -1.390625 C 3.847656 -1.085938 3.910156 -0.851562 3.984375 -0.6875 C 4.066406 -0.53125 4.144531 -0.421875 4.21875 -0.359375 C 4.300781 -0.296875 4.363281 -0.265625 4.40625 -0.265625 L 4.40625 0 L 0.90625 0 L 0.90625 -0.265625 C 0.9375 -0.265625 0.992188 -0.296875 1.078125 -0.359375 C 1.160156 -0.421875 1.234375 -0.53125 1.296875 -0.6875 C 1.367188 -0.851562 1.4375 -1.085938 1.5 -1.390625 C 1.5625 -1.703125 1.59375 -2.097656 1.59375 -2.578125 L 1.59375 -18.484375 C 1.59375 -18.984375 1.5625 -19.378906 1.5 -19.671875 C 1.4375 -19.972656 1.367188 -20.203125 1.296875 -20.359375 C 1.234375 -20.523438 1.160156 -20.640625 1.078125 -20.703125 C 0.992188 -20.765625 0.9375 -20.796875 0.90625 -20.796875 L 0.90625 -21.0625 L 4.40625 -21.0625 L 4.40625 -20.796875 C 4.363281 -20.796875 4.300781 -20.765625 4.21875 -20.703125 C 4.144531 -20.640625 4.066406 -20.523438 3.984375 -20.359375 C 3.910156 -20.203125 3.847656 -19.972656 3.796875 -19.671875 C 3.742188 -19.378906 3.71875 -18.984375 3.71875 -18.484375 L 3.71875 -12.625 L 13.5625 -12.625 L 13.5625 -18.484375 C 13.5625 -18.984375 13.53125 -19.378906 13.46875 -19.671875 C 13.40625 -19.972656 13.335938 -20.203125 13.265625 -20.359375 C 13.203125 -20.523438 13.128906 -20.640625 13.046875 -20.703125 C 12.972656 -20.765625 12.914062 -20.796875 12.875 -20.796875 L 12.875 -21.0625 L 16.40625 -21.0625 Z M 16.40625 -20.796875 "/></g></g><g style="fill:#000000;fill-opacity:1;"><g transform="translate(168.26162, 195.583902)"><path style="stroke:none" d="M 18 -18.515625 L 17.734375 -18.515625 C 17.285156 -18.992188 16.851562 -19.378906 16.4375 -19.671875 C 16.019531 -19.972656 15.539062 -20.203125 15 -20.359375 C 14.457031 -20.523438 13.828125 -20.640625 13.109375 -20.703125 C 12.390625 -20.765625 11.519531 -20.796875 10.5 -20.796875 L 10.5 -2.578125 C 10.5 -2.097656 10.523438 -1.703125 10.578125 -1.390625 C 10.628906 -1.085938 10.691406 -0.851562 10.765625 -0.6875 C 10.847656 -0.53125 10.925781 -0.421875 11 -0.359375 C 11.082031 -0.296875 11.144531 -0.265625 11.1875 -0.265625 L 11.1875 0 L 7.6875 0 L 7.6875 -0.265625 C 7.71875 -0.265625 7.773438 -0.296875 7.859375 -0.359375 C 7.941406 -0.421875 8.015625 -0.53125 8.078125 -0.6875 C 8.148438 -0.851562 8.21875 -1.085938 8.28125 -1.390625 C 8.34375 -1.703125 8.375 -2.097656 8.375 -2.578125 L 8.375 -20.796875 C 7.351562 -20.796875 6.484375 -20.765625 5.765625 -20.703125 C 5.046875 -20.640625 4.421875 -20.523438 3.890625 -20.359375 C 3.359375 -20.203125 2.878906 -19.972656 2.453125 -19.671875 C 2.035156 -19.378906 1.609375 -18.992188 1.171875 -18.515625 L 0.90625 -18.515625 L 0.90625 -21.0625 L 18 -21.0625 Z M 18 -18.515625 "/></g></g><g style="fill:#000000;fill-opacity:1;"><g transform="translate(187.161605, 195.583902)"><path style="stroke:none" d=""/></g></g><g style="fill:#000000;fill-opacity:1;"><g transform="translate(193.851604, 195.583902)"><path style="stroke:none" d="M 1.265625 -7.796875 C 0.878906 -9.222656 0.789062 -10.632812 1 -12.03125 C 1.207031 -13.425781 1.648438 -14.710938 2.328125 -15.890625 C 3.015625 -17.078125 3.90625 -18.101562 5 -18.96875 C 6.101562 -19.84375 7.367188 -20.46875 8.796875 -20.84375 C 10.210938 -21.226562 11.617188 -21.316406 13.015625 -21.109375 C 14.421875 -20.910156 15.710938 -20.472656 16.890625 -19.796875 C 18.066406 -19.117188 19.085938 -18.222656 19.953125 -17.109375 C 20.828125 -16.003906 21.457031 -14.738281 21.84375 -13.3125 C 22.21875 -11.894531 22.304688 -10.488281 22.109375 -9.09375 C 21.910156 -7.707031 21.46875 -6.425781 20.78125 -5.25 C 20.101562 -4.070312 19.207031 -3.039062 18.09375 -2.15625 C 16.988281 -1.28125 15.726562 -0.648438 14.3125 -0.265625 C 12.894531 0.109375 11.488281 0.195312 10.09375 0 C 8.707031 -0.195312 7.421875 -0.640625 6.234375 -1.328125 C 5.054688 -2.023438 4.023438 -2.921875 3.140625 -4.015625 C 2.265625 -5.117188 1.640625 -6.378906 1.265625 -7.796875 Z M 19.703125 -12.75 C 19.410156 -13.90625 18.914062 -15.035156 18.21875 -16.140625 C 17.53125 -17.242188 16.710938 -18.179688 15.765625 -18.953125 C 14.816406 -19.734375 13.75 -20.289062 12.5625 -20.625 C 11.382812 -20.957031 10.15625 -20.953125 8.875 -20.609375 C 7.582031 -20.265625 6.507812 -19.648438 5.65625 -18.765625 C 4.800781 -17.890625 4.15625 -16.878906 3.71875 -15.734375 C 3.28125 -14.585938 3.039062 -13.363281 3 -12.0625 C 2.957031 -10.757812 3.085938 -9.53125 3.390625 -8.375 C 3.710938 -7.207031 4.210938 -6.078125 4.890625 -4.984375 C 5.566406 -3.898438 6.382812 -2.96875 7.34375 -2.1875 C 8.3125 -1.40625 9.378906 -0.84375 10.546875 -0.5 C 11.710938 -0.164062 12.945312 -0.179688 14.25 -0.546875 C 15.53125 -0.878906 16.59375 -1.484375 17.4375 -2.359375 C 18.289062 -3.242188 18.9375 -4.257812 19.375 -5.40625 C 19.820312 -6.5625 20.066406 -7.785156 20.109375 -9.078125 C 20.160156 -10.367188 20.023438 -11.59375 19.703125 -12.75 Z M 19.703125 -12.75 "/></g></g><g style="fill:#000000;fill-opacity:1;"><g transform="translate(216.981577, 195.583902)"><path style="stroke:none" d="M 1.59375 -18.484375 C 1.59375 -18.984375 1.5625 -19.378906 1.5 -19.671875 C 1.4375 -19.972656 1.367188 -20.203125 1.296875 -20.359375 C 1.234375 -20.523438 1.160156 -20.640625 1.078125 -20.703125 C 0.992188 -20.765625 0.9375 -20.796875 0.90625 -20.796875 L 0.90625 -21.0625 L 4.40625 -21.0625 L 4.40625 -20.796875 C 4.363281 -20.796875 4.300781 -20.765625 4.21875 -20.703125 C 4.144531 -20.640625 4.066406 -20.523438 3.984375 -20.359375 C 3.910156 -20.203125 3.847656 -19.972656 3.796875 -19.671875 C 3.742188 -19.378906 3.71875 -18.984375 3.71875 -18.484375 L 3.71875 -7.921875 C 3.695312 -6.460938 3.878906 -5.171875 4.265625 -4.046875 C 4.421875 -3.566406 4.632812 -3.09375 4.90625 -2.625 C 5.175781 -2.15625 5.515625 -1.738281 5.921875 -1.375 C 6.335938 -1.019531 6.828125 -0.734375 7.390625 -0.515625 C 7.960938 -0.296875 8.628906 -0.1875 9.390625 -0.1875 C 10.128906 -0.1875 10.914062 -0.285156 11.75 -0.484375 C 12.59375 -0.679688 13.375 -1.054688 14.09375 -1.609375 C 14.820312 -2.171875 15.421875 -2.957031 15.890625 -3.96875 C 16.359375 -4.976562 16.59375 -6.296875 16.59375 -7.921875 L 16.59375 -16.171875 C 16.59375 -16.867188 16.550781 -17.503906 16.46875 -18.078125 C 16.382812 -18.648438 16.285156 -19.132812 16.171875 -19.53125 C 16.066406 -19.925781 15.945312 -20.234375 15.8125 -20.453125 C 15.6875 -20.679688 15.566406 -20.796875 15.453125 -20.796875 L 15.453125 -21.0625 L 18 -21.0625 L 18 -20.796875 C 17.875 -20.796875 17.75 -20.679688 17.625 -20.453125 C 17.5 -20.234375 17.378906 -19.925781 17.265625 -19.53125 C 17.148438 -19.132812 17.050781 -18.648438 16.96875 -18.078125 C 16.894531 -17.503906 16.859375 -16.867188 16.859375 -16.171875 L 16.859375 -7.921875 C 16.859375 -6.660156 16.71875 -5.582031 16.4375 -4.6875 C 16.15625 -3.800781 15.796875 -3.054688 15.359375 -2.453125 C 14.921875 -1.859375 14.425781 -1.382812 13.875 -1.03125 C 13.320312 -0.6875 12.773438 -0.421875 12.234375 -0.234375 C 11.703125 -0.0546875 11.195312 0.0546875 10.71875 0.109375 C 10.25 0.160156 9.875 0.1875 9.59375 0.1875 C 9.320312 0.1875 8.929688 0.15625 8.421875 0.09375 C 7.910156 0.03125 7.351562 -0.0976562 6.75 -0.296875 C 6.144531 -0.492188 5.535156 -0.773438 4.921875 -1.140625 C 4.316406 -1.503906 3.769531 -1.984375 3.28125 -2.578125 C 2.789062 -3.179688 2.382812 -3.914062 2.0625 -4.78125 C 1.75 -5.65625 1.59375 -6.703125 1.59375 -7.921875 Z M 1.59375 -18.484375 "/></g></g><g style="fill:#000000;fill-opacity:1;"><g transform="translate(235.881573, 195.583902)"><path style="stroke:none" d="M 18 -18.515625 L 17.734375 -18.515625 C 17.285156 -18.992188 16.851562 -19.378906 16.4375 -19.671875 C 16.019531 -19.972656 15.539062 -20.203125 15 -20.359375 C 14.457031 -20.523438 13.828125 -20.640625 13.109375 -20.703125 C 12.390625 -20.765625 11.519531 -20.796875 10.5 -20.796875 L 10.5 -2.578125 C 10.5 -2.097656 10.523438 -1.703125 10.578125 -1.390625 C 10.628906 -1.085938 10.691406 -0.851562 10.765625 -0.6875 C 10.847656 -0.53125 10.925781 -0.421875 11 -0.359375 C 11.082031 -0.296875 11.144531 -0.265625 11.1875 -0.265625 L 11.1875 0 L 7.6875 0 L 7.6875 -0.265625 C 7.71875 -0.265625 7.773438 -0.296875 7.859375 -0.359375 C 7.941406 -0.421875 8.015625 -0.53125 8.078125 -0.6875 C 8.148438 -0.851562 8.21875 -1.085938 8.28125 -1.390625 C 8.34375 -1.703125 8.375 -2.097656 8.375 -2.578125 L 8.375 -20.796875 C 7.351562 -20.796875 6.484375 -20.765625 5.765625 -20.703125 C 5.046875 -20.640625 4.421875 -20.523438 3.890625 -20.359375 C 3.359375 -20.203125 2.878906 -19.972656 2.453125 -19.671875 C 2.035156 -19.378906 1.609375 -18.992188 1.171875 -18.515625 L 0.90625 -18.515625 L 0.90625 -21.0625 L 18 -21.0625 Z M 18 -18.515625 "/></g></g><g style="fill:#000000;fill-opacity:1;"><g transform="translate(254.781535, 195.583902)"><path style="stroke:none" d="M 0.90625 -21.0625 L 3.71875 -21.0625 L 3.71875 -17.875 C 4.0625 -18.875 4.675781 -19.664062 5.5625 -20.25 C 6.457031 -20.832031 7.472656 -21.179688 8.609375 -21.296875 C 9.742188 -21.421875 10.925781 -21.296875 12.15625 -20.921875 C 13.394531 -20.554688 14.523438 -19.929688 15.546875 -19.046875 C 16.578125 -18.171875 17.421875 -17.023438 18.078125 -15.609375 C 18.742188 -14.203125 19.078125 -12.507812 19.078125 -10.53125 C 19.078125 -8.59375 18.757812 -6.929688 18.125 -5.546875 C 17.5 -4.171875 16.625 -3.046875 15.5 -2.171875 C 14.382812 -1.304688 13.066406 -0.671875 11.546875 -0.265625 C 10.023438 0.128906 8.375 0.328125 6.59375 0.328125 C 5.71875 0.328125 4.816406 0.273438 3.890625 0.171875 C 2.972656 0.078125 2.066406 0.0195312 1.171875 0 L 0.90625 0 L 0.90625 -0.265625 C 0.9375 -0.265625 0.992188 -0.296875 1.078125 -0.359375 C 1.160156 -0.421875 1.234375 -0.53125 1.296875 -0.6875 C 1.367188 -0.851562 1.4375 -1.085938 1.5 -1.390625 C 1.5625 -1.703125 1.59375 -2.097656 1.59375 -2.578125 L 1.59375 -18.484375 C 1.59375 -18.984375 1.5625 -19.378906 1.5 -19.671875 C 1.4375 -19.972656 1.367188 -20.203125 1.296875 -20.359375 C 1.234375 -20.523438 1.160156 -20.640625 1.078125 -20.703125 C 0.992188 -20.765625 0.9375 -20.796875 0.90625 -20.796875 Z M 16.984375 -10.53125 C 16.984375 -12.59375 16.65625 -14.332031 16 -15.75 C 15.351562 -17.164062 14.535156 -18.28125 13.546875 -19.09375 C 12.554688 -19.90625 11.488281 -20.429688 10.34375 -20.671875 C 9.207031 -20.910156 8.144531 -20.894531 7.15625 -20.625 C 6.164062 -20.351562 5.34375 -19.84375 4.6875 -19.09375 C 4.039062 -18.34375 3.71875 -17.378906 3.71875 -16.203125 L 3.71875 -0.125 C 4.21875 -0.0820312 4.707031 -0.0390625 5.1875 0 C 5.664062 0.0390625 6.132812 0.0625 6.59375 0.0625 C 8.238281 0.0625 9.703125 -0.179688 10.984375 -0.671875 C 12.265625 -1.160156 13.347656 -1.859375 14.234375 -2.765625 C 15.117188 -3.679688 15.796875 -4.789062 16.265625 -6.09375 C 16.742188 -7.40625 16.984375 -8.882812 16.984375 -10.53125 Z M 16.984375 -10.53125 "/></g></g><g style="fill:#000000;fill-opacity:1;"><g transform="translate(274.761522, 195.583902)"><path style="stroke:none" d="M 1.265625 -7.796875 C 0.878906 -9.222656 0.789062 -10.632812 1 -12.03125 C 1.207031 -13.425781 1.648438 -14.710938 2.328125 -15.890625 C 3.015625 -17.078125 3.90625 -18.101562 5 -18.96875 C 6.101562 -19.84375 7.367188 -20.46875 8.796875 -20.84375 C 10.210938 -21.226562 11.617188 -21.316406 13.015625 -21.109375 C 14.421875 -20.910156 15.710938 -20.472656 16.890625 -19.796875 C 18.066406 -19.117188 19.085938 -18.222656 19.953125 -17.109375 C 20.828125 -16.003906 21.457031 -14.738281 21.84375 -13.3125 C 22.21875 -11.894531 22.304688 -10.488281 22.109375 -9.09375 C 21.910156 -7.707031 21.46875 -6.425781 20.78125 -5.25 C 20.101562 -4.070312 19.207031 -3.039062 18.09375 -2.15625 C 16.988281 -1.28125 15.726562 -0.648438 14.3125 -0.265625 C 12.894531 0.109375 11.488281 0.195312 10.09375 0 C 8.707031 -0.195312 7.421875 -0.640625 6.234375 -1.328125 C 5.054688 -2.023438 4.023438 -2.921875 3.140625 -4.015625 C 2.265625 -5.117188 1.640625 -6.378906 1.265625 -7.796875 Z M 19.703125 -12.75 C 19.410156 -13.90625 18.914062 -15.035156 18.21875 -16.140625 C 17.53125 -17.242188 16.710938 -18.179688 15.765625 -18.953125 C 14.816406 -19.734375 13.75 -20.289062 12.5625 -20.625 C 11.382812 -20.957031 10.15625 -20.953125 8.875 -20.609375 C 7.582031 -20.265625 6.507812 -19.648438 5.65625 -18.765625 C 4.800781 -17.890625 4.15625 -16.878906 3.71875 -15.734375 C 3.28125 -14.585938 3.039062 -13.363281 3 -12.0625 C 2.957031 -10.757812 3.085938 -9.53125 3.390625 -8.375 C 3.710938 -7.207031 4.210938 -6.078125 4.890625 -4.984375 C 5.566406 -3.898438 6.382812 -2.96875 7.34375 -2.1875 C 8.3125 -1.40625 9.378906 -0.84375 10.546875 -0.5 C 11.710938 -0.164062 12.945312 -0.179688 14.25 -0.546875 C 15.53125 -0.878906 16.59375 -1.484375 17.4375 -2.359375 C 18.289062 -3.242188 18.9375 -4.257812 19.375 -5.40625 C 19.820312 -6.5625 20.066406 -7.785156 20.109375 -9.078125 C 20.160156 -10.367188 20.023438 -11.59375 19.703125 -12.75 Z M 19.703125 -12.75 "/></g></g><g style="fill:#000000;fill-opacity:1;"><g transform="translate(297.891495, 195.583902)"><path style="stroke:none" d="M 1.265625 -7.796875 C 0.878906 -9.222656 0.789062 -10.632812 1 -12.03125 C 1.207031 -13.425781 1.648438 -14.710938 2.328125 -15.890625 C 3.015625 -17.078125 3.90625 -18.101562 5 -18.96875 C 6.101562 -19.84375 7.367188 -20.46875 8.796875 -20.84375 C 10.210938 -21.226562 11.617188 -21.316406 13.015625 -21.109375 C 14.421875 -20.910156 15.710938 -20.472656 16.890625 -19.796875 C 18.066406 -19.117188 19.085938 -18.222656 19.953125 -17.109375 C 20.828125 -16.003906 21.457031 -14.738281 21.84375 -13.3125 C 22.21875 -11.894531 22.304688 -10.488281 22.109375 -9.09375 C 21.910156 -7.707031 21.46875 -6.425781 20.78125 -5.25 C 20.101562 -4.070312 19.207031 -3.039062 18.09375 -2.15625 C 16.988281 -1.28125 15.726562 -0.648438 14.3125 -0.265625 C 12.894531 0.109375 11.488281 0.195312 10.09375 0 C 8.707031 -0.195312 7.421875 -0.640625 6.234375 -1.328125 C 5.054688 -2.023438 4.023438 -2.921875 3.140625 -4.015625 C 2.265625 -5.117188 1.640625 -6.378906 1.265625 -7.796875 Z M 19.703125 -12.75 C 19.410156 -13.90625 18.914062 -15.035156 18.21875 -16.140625 C 17.53125 -17.242188 16.710938 -18.179688 15.765625 -18.953125 C 14.816406 -19.734375 13.75 -20.289062 12.5625 -20.625 C 11.382812 -20.957031 10.15625 -20.953125 8.875 -20.609375 C 7.582031 -20.265625 6.507812 -19.648438 5.65625 -18.765625 C 4.800781 -17.890625 4.15625 -16.878906 3.71875 -15.734375 C 3.28125 -14.585938 3.039062 -13.363281 3 -12.0625 C 2.957031 -10.757812 3.085938 -9.53125 3.390625 -8.375 C 3.710938 -7.207031 4.210938 -6.078125 4.890625 -4.984375 C 5.566406 -3.898438 6.382812 -2.96875 7.34375 -2.1875 C 8.3125 -1.40625 9.378906 -0.84375 10.546875 -0.5 C 11.710938 -0.164062 12.945312 -0.179688 14.25 -0.546875 C 15.53125 -0.878906 16.59375 -1.484375 17.4375 -2.359375 C 18.289062 -3.242188 18.9375 -4.257812 19.375 -5.40625 C 19.820312 -6.5625 20.066406 -7.785156 20.109375 -9.078125 C 20.160156 -10.367188 20.023438 -11.59375 19.703125 -12.75 Z M 19.703125 -12.75 "/></g></g><g style="fill:#000000;fill-opacity:1;"><g transform="translate(321.021468, 195.583902)"><path style="stroke:none" d="M 13.734375 -4.234375 C 14.054688 -3.671875 14.363281 -3.148438 14.65625 -2.671875 C 14.945312 -2.191406 15.210938 -1.769531 15.453125 -1.40625 C 15.691406 -1.050781 15.894531 -0.769531 16.0625 -0.5625 C 16.226562 -0.363281 16.375 -0.265625 16.5 -0.265625 L 16.5 0 L 12.984375 0 L 12.984375 -0.265625 C 13.109375 -0.265625 13.0625 -0.570312 12.84375 -1.1875 C 12.625 -1.8125 12.234375 -2.601562 11.671875 -3.5625 L 7.109375 -11.453125 L 3.71875 -11.453125 L 3.71875 -2.578125 C 3.71875 -2.097656 3.742188 -1.703125 3.796875 -1.390625 C 3.847656 -1.085938 3.910156 -0.851562 3.984375 -0.6875 C 4.066406 -0.53125 4.144531 -0.421875 4.21875 -0.359375 C 4.300781 -0.296875 4.363281 -0.265625 4.40625 -0.265625 L 4.40625 0 L 0.90625 0 L 0.90625 -0.265625 C 0.9375 -0.265625 0.992188 -0.296875 1.078125 -0.359375 C 1.160156 -0.421875 1.234375 -0.53125 1.296875 -0.6875 C 1.367188 -0.851562 1.4375 -1.085938 1.5 -1.390625 C 1.5625 -1.703125 1.59375 -2.097656 1.59375 -2.578125 L 1.59375 -18.484375 C 1.59375 -18.984375 1.5625 -19.378906 1.5 -19.671875 C 1.4375 -19.972656 1.367188 -20.203125 1.296875 -20.359375 C 1.234375 -20.523438 1.160156 -20.640625 1.078125 -20.703125 C 0.992188 -20.765625 0.9375 -20.796875 0.90625 -20.796875 L 0.90625 -21.0625 L 1.171875 -21.0625 C 2.066406 -21.082031 2.992188 -21.140625 3.953125 -21.234375 C 4.921875 -21.335938 5.84375 -21.390625 6.71875 -21.390625 C 8.238281 -21.390625 9.519531 -21.265625 10.5625 -21.015625 C 11.601562 -20.765625 12.441406 -20.414062 13.078125 -19.96875 C 13.722656 -19.53125 14.179688 -19.003906 14.453125 -18.390625 C 14.734375 -17.785156 14.875 -17.125 14.875 -16.40625 C 14.875 -15.8125 14.78125 -15.253906 14.59375 -14.734375 C 14.40625 -14.210938 14.09375 -13.738281 13.65625 -13.3125 C 13.226562 -12.894531 12.671875 -12.539062 11.984375 -12.25 C 11.296875 -11.957031 10.460938 -11.742188 9.484375 -11.609375 Z M 3.71875 -20.96875 L 3.71875 -11.703125 L 6.71875 -11.703125 C 7.375 -11.703125 8.054688 -11.769531 8.765625 -11.90625 C 9.484375 -12.050781 10.132812 -12.300781 10.71875 -12.65625 C 11.3125 -13.019531 11.800781 -13.503906 12.1875 -14.109375 C 12.582031 -14.722656 12.78125 -15.488281 12.78125 -16.40625 C 12.78125 -17.332031 12.582031 -18.097656 12.1875 -18.703125 C 11.800781 -19.316406 11.3125 -19.800781 10.71875 -20.15625 C 10.132812 -20.519531 9.484375 -20.773438 8.765625 -20.921875 C 8.054688 -21.078125 7.375 -21.15625 6.71875 -21.15625 C 6.257812 -21.15625 5.773438 -21.132812 5.265625 -21.09375 C 4.753906 -21.050781 4.238281 -21.007812 3.71875 -20.96875 Z M 3.71875 -20.96875 "/></g></g><g clip-rule="nonzero" clip-path="url(#d28d6e7a97)"><path style=" stroke:none;fill-rule:nonzero;fill:#000000;fill-opacity:1;" d="M 127.5 175.453125 L 132.09375 181.179688 L 126.367188 176.585938 L 125.496094 191.082031 L 124.628906 176.585938 L 118.902344 181.179688 L 123.496094 175.453125 L 108.996094 174.582031 L 123.496094 173.714844 L 118.902344 167.988281 L 124.628906 172.578125 L 125.496094 158.082031 L 126.367188 172.578125 L 132.09375 167.988281 L 127.5 173.714844 L 141.996094 174.582031 Z M 127.5 175.453125 "/></g><g style="fill:#000000;fill-opacity:1;"><g transform="translate(67.863094, 214.66311)"><path style="stroke:none" d="M 4.59375 0.109375 C 4.101562 0.109375 3.617188 0.03125 3.140625 -0.125 C 2.671875 -0.289062 2.238281 -0.539062 1.84375 -0.875 C 1.457031 -1.21875 1.144531 -1.644531 0.90625 -2.15625 C 0.675781 -2.664062 0.5625 -3.269531 0.5625 -3.96875 C 0.5625 -4.78125 0.726562 -5.492188 1.0625 -6.109375 C 1.40625 -6.722656 1.878906 -7.203125 2.484375 -7.546875 C 3.085938 -7.890625 3.789062 -8.0625 4.59375 -8.0625 C 5.070312 -8.0625 5.546875 -7.976562 6.015625 -7.8125 C 6.492188 -7.644531 6.925781 -7.390625 7.3125 -7.046875 C 7.707031 -6.710938 8.019531 -6.285156 8.25 -5.765625 C 8.476562 -5.253906 8.59375 -4.648438 8.59375 -3.953125 C 8.59375 -3.234375 8.472656 -2.617188 8.234375 -2.109375 C 8.003906 -1.597656 7.695312 -1.175781 7.3125 -0.84375 C 6.925781 -0.519531 6.492188 -0.28125 6.015625 -0.125 C 5.546875 0.03125 5.070312 0.109375 4.59375 0.109375 Z M 1.1875 -4.59375 C 1.1875 -4.007812 1.273438 -3.453125 1.453125 -2.921875 C 1.640625 -2.390625 1.898438 -1.910156 2.234375 -1.484375 C 2.566406 -1.054688 2.957031 -0.71875 3.40625 -0.46875 C 3.863281 -0.226562 4.359375 -0.109375 4.890625 -0.109375 C 5.523438 -0.109375 6.078125 -0.242188 6.546875 -0.515625 C 7.015625 -0.785156 7.375 -1.164062 7.625 -1.65625 C 7.875 -2.144531 8 -2.710938 8 -3.359375 C 8 -3.941406 7.90625 -4.5 7.71875 -5.03125 C 7.53125 -5.570312 7.265625 -6.050781 6.921875 -6.46875 C 6.585938 -6.894531 6.191406 -7.226562 5.734375 -7.46875 C 5.285156 -7.71875 4.796875 -7.84375 4.265625 -7.84375 C 3.617188 -7.84375 3.066406 -7.703125 2.609375 -7.421875 C 2.148438 -7.140625 1.796875 -6.753906 1.546875 -6.265625 C 1.304688 -5.773438 1.1875 -5.21875 1.1875 -4.59375 Z M 1.1875 -4.59375 "/></g></g><g style="fill:#000000;fill-opacity:1;"><g transform="translate(80.470997, 214.66311)"><path style="stroke:none" d="M 4.015625 0.109375 C 3.609375 0.109375 3.21875 0.0625 2.84375 -0.03125 C 2.476562 -0.132812 2.148438 -0.296875 1.859375 -0.515625 C 1.566406 -0.742188 1.332031 -1.039062 1.15625 -1.40625 C 0.988281 -1.78125 0.90625 -2.226562 0.90625 -2.75 L 0.90625 -6.53125 C 0.90625 -6.875 0.890625 -7.132812 0.859375 -7.3125 C 0.828125 -7.5 0.773438 -7.628906 0.703125 -7.703125 C 0.640625 -7.773438 0.554688 -7.820312 0.453125 -7.84375 L 0.453125 -7.96875 L 2 -7.96875 L 2 -7.84375 C 1.894531 -7.820312 1.804688 -7.773438 1.734375 -7.703125 C 1.671875 -7.628906 1.625 -7.5 1.59375 -7.3125 C 1.5625 -7.132812 1.546875 -6.875 1.546875 -6.53125 L 1.546875 -3 C 1.546875 -2.28125 1.675781 -1.707031 1.9375 -1.28125 C 2.195312 -0.851562 2.535156 -0.546875 2.953125 -0.359375 C 3.367188 -0.171875 3.804688 -0.078125 4.265625 -0.078125 C 4.515625 -0.078125 4.78125 -0.117188 5.0625 -0.203125 C 5.34375 -0.296875 5.601562 -0.445312 5.84375 -0.65625 C 6.082031 -0.875 6.273438 -1.164062 6.421875 -1.53125 C 6.578125 -1.894531 6.65625 -2.363281 6.65625 -2.9375 L 6.65625 -6.328125 C 6.65625 -6.722656 6.628906 -7.023438 6.578125 -7.234375 C 6.523438 -7.441406 6.445312 -7.585938 6.34375 -7.671875 C 6.25 -7.753906 6.128906 -7.8125 5.984375 -7.84375 L 5.984375 -7.96875 L 7.296875 -7.96875 L 7.296875 -7.84375 C 7.179688 -7.820312 7.085938 -7.773438 7.015625 -7.703125 C 6.953125 -7.628906 6.90625 -7.5 6.875 -7.3125 C 6.84375 -7.132812 6.828125 -6.875 6.828125 -6.53125 L 6.828125 -2.984375 C 6.828125 -2.222656 6.695312 -1.613281 6.4375 -1.15625 C 6.175781 -0.707031 5.832031 -0.382812 5.40625 -0.1875 C 4.976562 0.0078125 4.515625 0.109375 4.015625 0.109375 Z M 4.015625 0.109375 "/></g></g><g style="fill:#000000;fill-opacity:1;"><g transform="translate(91.543295, 214.66311)"><path style="stroke:none" d="M 2.40625 0 L 2.40625 -0.125 C 2.507812 -0.15625 2.59375 -0.207031 2.65625 -0.28125 C 2.726562 -0.351562 2.78125 -0.476562 2.8125 -0.65625 C 2.84375 -0.832031 2.859375 -1.097656 2.859375 -1.453125 L 2.859375 -7.828125 L 2.078125 -7.828125 C 1.734375 -7.828125 1.453125 -7.789062 1.234375 -7.71875 C 1.015625 -7.65625 0.832031 -7.550781 0.6875 -7.40625 C 0.550781 -7.257812 0.425781 -7.066406 0.3125 -6.828125 L 0.21875 -6.84375 L 0.28125 -7.96875 L 6.0625 -7.96875 L 6.125 -6.84375 L 6.03125 -6.828125 C 5.914062 -7.066406 5.785156 -7.257812 5.640625 -7.40625 C 5.503906 -7.550781 5.328125 -7.65625 5.109375 -7.71875 C 4.890625 -7.789062 4.609375 -7.828125 4.265625 -7.828125 L 3.515625 -7.828125 L 3.515625 -1.453125 C 3.515625 -1.097656 3.523438 -0.832031 3.546875 -0.65625 C 3.578125 -0.476562 3.625 -0.351562 3.6875 -0.28125 C 3.757812 -0.207031 3.851562 -0.15625 3.96875 -0.125 L 3.96875 0 Z M 2.40625 0 "/></g></g><g style="fill:#000000;fill-opacity:1;"><g transform="translate(101.353001, 214.66311)"><path style="stroke:none" d="M 0.625 0 L 0.625 -0.125 C 0.726562 -0.15625 0.8125 -0.207031 0.875 -0.28125 C 0.945312 -0.351562 1 -0.476562 1.03125 -0.65625 C 1.0625 -0.832031 1.078125 -1.097656 1.078125 -1.453125 L 1.078125 -6.53125 C 1.078125 -6.875 1.0625 -7.132812 1.03125 -7.3125 C 1 -7.5 0.945312 -7.628906 0.875 -7.703125 C 0.8125 -7.773438 0.726562 -7.820312 0.625 -7.84375 L 0.625 -7.96875 L 3.21875 -7.96875 C 3.96875 -7.96875 4.613281 -7.863281 5.15625 -7.65625 C 5.707031 -7.445312 6.160156 -7.164062 6.515625 -6.8125 C 6.878906 -6.457031 7.148438 -6.046875 7.328125 -5.578125 C 7.515625 -5.117188 7.609375 -4.632812 7.609375 -4.125 C 7.609375 -3.539062 7.515625 -3 7.328125 -2.5 C 7.140625 -2 6.863281 -1.5625 6.5 -1.1875 C 6.132812 -0.8125 5.695312 -0.519531 5.1875 -0.3125 C 4.6875 -0.101562 4.125 0 3.5 0 Z M 1.71875 -0.984375 C 1.71875 -0.722656 1.765625 -0.519531 1.859375 -0.375 C 1.953125 -0.226562 2.148438 -0.15625 2.453125 -0.15625 L 3.53125 -0.15625 C 4.613281 -0.15625 5.441406 -0.46875 6.015625 -1.09375 C 6.597656 -1.726562 6.890625 -2.625 6.890625 -3.78125 C 6.890625 -4.332031 6.796875 -4.851562 6.609375 -5.34375 C 6.429688 -5.832031 6.164062 -6.257812 5.8125 -6.625 C 5.46875 -7 5.046875 -7.289062 4.546875 -7.5 C 4.046875 -7.71875 3.476562 -7.828125 2.84375 -7.828125 L 1.71875 -7.828125 Z M 1.71875 -0.984375 "/></g></g><g style="fill:#000000;fill-opacity:1;"><g transform="translate(112.971296, 214.66311)"><path style="stroke:none" d="M 4.59375 0.109375 C 4.101562 0.109375 3.617188 0.03125 3.140625 -0.125 C 2.671875 -0.289062 2.238281 -0.539062 1.84375 -0.875 C 1.457031 -1.21875 1.144531 -1.644531 0.90625 -2.15625 C 0.675781 -2.664062 0.5625 -3.269531 0.5625 -3.96875 C 0.5625 -4.78125 0.726562 -5.492188 1.0625 -6.109375 C 1.40625 -6.722656 1.878906 -7.203125 2.484375 -7.546875 C 3.085938 -7.890625 3.789062 -8.0625 4.59375 -8.0625 C 5.070312 -8.0625 5.546875 -7.976562 6.015625 -7.8125 C 6.492188 -7.644531 6.925781 -7.390625 7.3125 -7.046875 C 7.707031 -6.710938 8.019531 -6.285156 8.25 -5.765625 C 8.476562 -5.253906 8.59375 -4.648438 8.59375 -3.953125 C 8.59375 -3.234375 8.472656 -2.617188 8.234375 -2.109375 C 8.003906 -1.597656 7.695312 -1.175781 7.3125 -0.84375 C 6.925781 -0.519531 6.492188 -0.28125 6.015625 -0.125 C 5.546875 0.03125 5.070312 0.109375 4.59375 0.109375 Z M 1.1875 -4.59375 C 1.1875 -4.007812 1.273438 -3.453125 1.453125 -2.921875 C 1.640625 -2.390625 1.898438 -1.910156 2.234375 -1.484375 C 2.566406 -1.054688 2.957031 -0.71875 3.40625 -0.46875 C 3.863281 -0.226562 4.359375 -0.109375 4.890625 -0.109375 C 5.523438 -0.109375 6.078125 -0.242188 6.546875 -0.515625 C 7.015625 -0.785156 7.375 -1.164062 7.625 -1.65625 C 7.875 -2.144531 8 -2.710938 8 -3.359375 C 8 -3.941406 7.90625 -4.5 7.71875 -5.03125 C 7.53125 -5.570312 7.265625 -6.050781 6.921875 -6.46875 C 6.585938 -6.894531 6.191406 -7.226562 5.734375 -7.46875 C 5.285156 -7.71875 4.796875 -7.84375 4.265625 -7.84375 C 3.617188 -7.84375 3.066406 -7.703125 2.609375 -7.421875 C 2.148438 -7.140625 1.796875 -6.753906 1.546875 -6.265625 C 1.304688 -5.773438 1.1875 -5.21875 1.1875 -4.59375 Z M 1.1875 -4.59375 "/></g></g><g style="fill:#000000;fill-opacity:1;"><g transform="translate(125.579199, 214.66311)"><path style="stroke:none" d="M 4.59375 0.109375 C 4.101562 0.109375 3.617188 0.03125 3.140625 -0.125 C 2.671875 -0.289062 2.238281 -0.539062 1.84375 -0.875 C 1.457031 -1.21875 1.144531 -1.644531 0.90625 -2.15625 C 0.675781 -2.664062 0.5625 -3.269531 0.5625 -3.96875 C 0.5625 -4.78125 0.726562 -5.492188 1.0625 -6.109375 C 1.40625 -6.722656 1.878906 -7.203125 2.484375 -7.546875 C 3.085938 -7.890625 3.789062 -8.0625 4.59375 -8.0625 C 5.070312 -8.0625 5.546875 -7.976562 6.015625 -7.8125 C 6.492188 -7.644531 6.925781 -7.390625 7.3125 -7.046875 C 7.707031 -6.710938 8.019531 -6.285156 8.25 -5.765625 C 8.476562 -5.253906 8.59375 -4.648438 8.59375 -3.953125 C 8.59375 -3.234375 8.472656 -2.617188 8.234375 -2.109375 C 8.003906 -1.597656 7.695312 -1.175781 7.3125 -0.84375 C 6.925781 -0.519531 6.492188 -0.28125 6.015625 -0.125 C 5.546875 0.03125 5.070312 0.109375 4.59375 0.109375 Z M 1.1875 -4.59375 C 1.1875 -4.007812 1.273438 -3.453125 1.453125 -2.921875 C 1.640625 -2.390625 1.898438 -1.910156 2.234375 -1.484375 C 2.566406 -1.054688 2.957031 -0.71875 3.40625 -0.46875 C 3.863281 -0.226562 4.359375 -0.109375 4.890625 -0.109375 C 5.523438 -0.109375 6.078125 -0.242188 6.546875 -0.515625 C 7.015625 -0.785156 7.375 -1.164062 7.625 -1.65625 C 7.875 -2.144531 8 -2.710938 8 -3.359375 C 8 -3.941406 7.90625 -4.5 7.71875 -5.03125 C 7.53125 -5.570312 7.265625 -6.050781 6.921875 -6.46875 C 6.585938 -6.894531 6.191406 -7.226562 5.734375 -7.46875 C 5.285156 -7.71875 4.796875 -7.84375 4.265625 -7.84375 C 3.617188 -7.84375 3.066406 -7.703125 2.609375 -7.421875 C 2.148438 -7.140625 1.796875 -6.753906 1.546875 -6.265625 C 1.304688 -5.773438 1.1875 -5.21875 1.1875 -4.59375 Z M 1.1875 -4.59375 "/></g></g><g style="fill:#000000;fill-opacity:1;"><g transform="translate(138.187102, 214.66311)"><path style="stroke:none" d="M 6.4375 0.078125 C 6.164062 0.078125 5.953125 0.0078125 5.796875 -0.125 C 5.648438 -0.269531 5.523438 -0.46875 5.421875 -0.71875 C 5.328125 -0.976562 5.203125 -1.28125 5.046875 -1.625 C 4.890625 -1.988281 4.75 -2.320312 4.625 -2.625 C 4.5 -2.9375 4.359375 -3.203125 4.203125 -3.421875 C 4.046875 -3.648438 3.832031 -3.828125 3.5625 -3.953125 C 3.300781 -4.078125 2.945312 -4.140625 2.5 -4.140625 L 1.71875 -4.140625 L 1.71875 -1.453125 C 1.71875 -1.097656 1.734375 -0.832031 1.765625 -0.65625 C 1.796875 -0.476562 1.84375 -0.351562 1.90625 -0.28125 C 1.976562 -0.207031 2.066406 -0.15625 2.171875 -0.125 L 2.171875 0 L 0.625 0 L 0.625 -0.125 C 0.726562 -0.15625 0.8125 -0.207031 0.875 -0.28125 C 0.945312 -0.351562 1 -0.476562 1.03125 -0.65625 C 1.0625 -0.832031 1.078125 -1.097656 1.078125 -1.453125 L 1.078125 -6.53125 C 1.078125 -6.875 1.0625 -7.132812 1.03125 -7.3125 C 1 -7.5 0.945312 -7.628906 0.875 -7.703125 C 0.8125 -7.773438 0.726562 -7.820312 0.625 -7.84375 L 0.625 -7.96875 L 2.71875 -7.96875 C 3.78125 -7.96875 4.539062 -7.816406 5 -7.515625 C 5.46875 -7.222656 5.703125 -6.796875 5.703125 -6.234375 C 5.703125 -5.691406 5.503906 -5.226562 5.109375 -4.84375 C 4.710938 -4.46875 4.148438 -4.242188 3.421875 -4.171875 C 3.796875 -4.117188 4.097656 -4.023438 4.328125 -3.890625 C 4.566406 -3.753906 4.757812 -3.582031 4.90625 -3.375 C 5.050781 -3.175781 5.175781 -2.941406 5.28125 -2.671875 C 5.382812 -2.410156 5.5 -2.117188 5.625 -1.796875 C 5.863281 -1.203125 6.070312 -0.769531 6.25 -0.5 C 6.4375 -0.226562 6.617188 -0.09375 6.796875 -0.09375 C 6.835938 -0.09375 6.875 -0.09375 6.90625 -0.09375 C 6.9375 -0.101562 6.96875 -0.109375 7 -0.109375 L 7 0 C 6.957031 0.0078125 6.882812 0.0234375 6.78125 0.046875 C 6.675781 0.0664062 6.5625 0.078125 6.4375 0.078125 Z M 1.71875 -4.3125 L 2.921875 -4.3125 C 3.585938 -4.3125 4.097656 -4.457031 4.453125 -4.75 C 4.816406 -5.039062 5 -5.453125 5 -5.984375 C 5 -6.546875 4.796875 -6.992188 4.390625 -7.328125 C 3.984375 -7.660156 3.285156 -7.828125 2.296875 -7.828125 C 2.203125 -7.828125 2.109375 -7.820312 2.015625 -7.8125 C 1.921875 -7.8125 1.820312 -7.804688 1.71875 -7.796875 Z M 1.71875 -4.3125 "/></g></g><g style="fill:#000000;fill-opacity:1;"><g transform="translate(148.520049, 214.66311)"><path style="stroke:none" d=""/></g></g><g style="fill:#000000;fill-opacity:1;"><g transform="translate(154.473696, 214.66311)"><path style="stroke:none" d="M 3.234375 0.109375 C 2.828125 0.109375 2.453125 0.0664062 2.109375 -0.015625 C 1.773438 -0.0976562 1.476562 -0.203125 1.21875 -0.328125 C 0.957031 -0.460938 0.75 -0.582031 0.59375 -0.6875 L 0.515625 -2.15625 L 0.625 -2.171875 C 0.75 -1.804688 0.921875 -1.460938 1.140625 -1.140625 C 1.359375 -0.816406 1.648438 -0.554688 2.015625 -0.359375 C 2.378906 -0.160156 2.835938 -0.0625 3.390625 -0.0625 C 3.742188 -0.0625 4.0625 -0.128906 4.34375 -0.265625 C 4.625 -0.410156 4.847656 -0.601562 5.015625 -0.84375 C 5.191406 -1.082031 5.28125 -1.351562 5.28125 -1.65625 C 5.28125 -1.9375 5.207031 -2.1875 5.0625 -2.40625 C 4.914062 -2.632812 4.722656 -2.828125 4.484375 -2.984375 C 4.253906 -3.148438 4.003906 -3.289062 3.734375 -3.40625 C 3.460938 -3.53125 3.203125 -3.644531 2.953125 -3.75 C 2.179688 -4.050781 1.613281 -4.363281 1.25 -4.6875 C 0.882812 -5.019531 0.703125 -5.453125 0.703125 -5.984375 C 0.703125 -6.410156 0.8125 -6.773438 1.03125 -7.078125 C 1.25 -7.390625 1.554688 -7.628906 1.953125 -7.796875 C 2.347656 -7.960938 2.800781 -8.046875 3.3125 -8.046875 C 3.945312 -8.046875 4.445312 -7.972656 4.8125 -7.828125 C 5.175781 -7.691406 5.425781 -7.578125 5.5625 -7.484375 L 5.609375 -6.328125 L 5.53125 -6.3125 C 5.40625 -6.570312 5.242188 -6.820312 5.046875 -7.0625 C 4.847656 -7.300781 4.585938 -7.492188 4.265625 -7.640625 C 3.941406 -7.796875 3.523438 -7.875 3.015625 -7.875 C 2.703125 -7.875 2.410156 -7.816406 2.140625 -7.703125 C 1.867188 -7.585938 1.648438 -7.410156 1.484375 -7.171875 C 1.316406 -6.941406 1.234375 -6.648438 1.234375 -6.296875 C 1.234375 -6.015625 1.296875 -5.769531 1.421875 -5.5625 C 1.554688 -5.363281 1.734375 -5.1875 1.953125 -5.03125 C 2.179688 -4.882812 2.425781 -4.75 2.6875 -4.625 C 2.957031 -4.5 3.21875 -4.382812 3.46875 -4.28125 C 3.925781 -4.101562 4.332031 -3.914062 4.6875 -3.71875 C 5.039062 -3.519531 5.316406 -3.285156 5.515625 -3.015625 C 5.722656 -2.753906 5.828125 -2.425781 5.828125 -2.03125 C 5.828125 -1.613281 5.707031 -1.242188 5.46875 -0.921875 C 5.226562 -0.597656 4.910156 -0.34375 4.515625 -0.15625 C 4.128906 0.0195312 3.703125 0.109375 3.234375 0.109375 Z M 3.234375 0.109375 "/></g></g><g style="fill:#000000;fill-opacity:1;"><g transform="translate(164.158274, 214.66311)"><path style="stroke:none" d="M 0.625 0 L 0.625 -0.125 C 0.726562 -0.15625 0.8125 -0.207031 0.875 -0.28125 C 0.945312 -0.351562 1 -0.476562 1.03125 -0.65625 C 1.0625 -0.832031 1.078125 -1.097656 1.078125 -1.453125 L 1.078125 -6.53125 C 1.078125 -6.875 1.0625 -7.132812 1.03125 -7.3125 C 1 -7.5 0.945312 -7.628906 0.875 -7.703125 C 0.8125 -7.773438 0.726562 -7.820312 0.625 -7.84375 L 0.625 -7.96875 L 2.84375 -7.96875 C 3.550781 -7.96875 4.128906 -7.867188 4.578125 -7.671875 C 5.023438 -7.472656 5.351562 -7.203125 5.5625 -6.859375 C 5.78125 -6.515625 5.890625 -6.128906 5.890625 -5.703125 C 5.890625 -4.890625 5.609375 -4.265625 5.046875 -3.828125 C 4.492188 -3.398438 3.75 -3.1875 2.8125 -3.1875 L 1.71875 -3.1875 L 1.71875 -1.453125 C 1.71875 -1.097656 1.734375 -0.832031 1.765625 -0.65625 C 1.796875 -0.476562 1.84375 -0.351562 1.90625 -0.28125 C 1.976562 -0.207031 2.066406 -0.15625 2.171875 -0.125 L 2.171875 0 Z M 1.71875 -3.34375 L 2.8125 -3.34375 C 3.53125 -3.34375 4.101562 -3.519531 4.53125 -3.875 C 4.96875 -4.226562 5.1875 -4.757812 5.1875 -5.46875 C 5.1875 -6.207031 4.941406 -6.78125 4.453125 -7.1875 C 3.972656 -7.601562 3.265625 -7.8125 2.328125 -7.8125 C 2.234375 -7.8125 2.132812 -7.804688 2.03125 -7.796875 C 1.925781 -7.796875 1.820312 -7.796875 1.71875 -7.796875 Z M 1.71875 -3.34375 "/></g></g><g style="fill:#000000;fill-opacity:1;"><g transform="translate(173.808731, 214.66311)"><path style="stroke:none" d="M -0.140625 0 L -0.140625 -0.125 C -0.0351562 -0.15625 0.0625 -0.203125 0.15625 -0.265625 C 0.25 -0.328125 0.347656 -0.441406 0.453125 -0.609375 C 0.566406 -0.773438 0.6875 -1.019531 0.8125 -1.34375 L 3.1875 -7.203125 C 3.25 -7.347656 3.242188 -7.5 3.171875 -7.65625 L 3.09375 -7.796875 L 3.671875 -8.046875 L 6.453125 -1.328125 C 6.585938 -1.015625 6.703125 -0.773438 6.796875 -0.609375 C 6.898438 -0.441406 6.992188 -0.328125 7.078125 -0.265625 C 7.160156 -0.203125 7.238281 -0.15625 7.3125 -0.125 L 7.3125 0 L 5.875 0 L 5.875 -0.125 C 5.976562 -0.15625 6.046875 -0.203125 6.078125 -0.265625 C 6.109375 -0.328125 6.097656 -0.441406 6.046875 -0.609375 C 6.003906 -0.773438 5.914062 -1.015625 5.78125 -1.328125 L 5.078125 -3.046875 L 1.6875 -3.046875 L 1 -1.34375 C 0.851562 -0.988281 0.785156 -0.707031 0.796875 -0.5 C 0.804688 -0.289062 0.910156 -0.164062 1.109375 -0.125 L 1.109375 0 Z M 1.75 -3.203125 L 5.015625 -3.203125 L 3.359375 -7.203125 Z M 1.75 -3.203125 "/></g></g><g style="fill:#000000;fill-opacity:1;"><g transform="translate(184.517036, 214.66311)"><path style="stroke:none" d="M 4.75 0.109375 C 3.914062 0.109375 3.1875 -0.046875 2.5625 -0.359375 C 1.9375 -0.679688 1.445312 -1.132812 1.09375 -1.71875 C 0.738281 -2.3125 0.5625 -3.003906 0.5625 -3.796875 C 0.5625 -4.441406 0.675781 -5.023438 0.90625 -5.546875 C 1.132812 -6.066406 1.453125 -6.515625 1.859375 -6.890625 C 2.265625 -7.265625 2.738281 -7.550781 3.28125 -7.75 C 3.832031 -7.945312 4.425781 -8.046875 5.0625 -8.046875 C 5.4375 -8.046875 5.796875 -8.007812 6.140625 -7.9375 C 6.484375 -7.863281 6.785156 -7.78125 7.046875 -7.6875 C 7.304688 -7.59375 7.484375 -7.519531 7.578125 -7.46875 L 7.625 -6.28125 L 7.53125 -6.265625 C 7.3125 -6.710938 6.957031 -7.082031 6.46875 -7.375 C 5.988281 -7.675781 5.359375 -7.828125 4.578125 -7.828125 C 3.972656 -7.828125 3.421875 -7.691406 2.921875 -7.421875 C 2.421875 -7.160156 2.015625 -6.765625 1.703125 -6.234375 C 1.398438 -5.703125 1.242188 -5.035156 1.234375 -4.234375 C 1.234375 -3.722656 1.3125 -3.21875 1.46875 -2.71875 C 1.625 -2.226562 1.863281 -1.785156 2.1875 -1.390625 C 2.507812 -0.992188 2.90625 -0.675781 3.375 -0.4375 C 3.851562 -0.207031 4.414062 -0.09375 5.0625 -0.09375 C 5.65625 -0.09375 6.191406 -0.234375 6.671875 -0.515625 C 7.160156 -0.804688 7.519531 -1.269531 7.75 -1.90625 L 7.875 -1.890625 L 7.6875 -0.5625 C 7.53125 -0.457031 7.289062 -0.351562 6.96875 -0.25 C 6.65625 -0.144531 6.300781 -0.0625 5.90625 0 C 5.519531 0.0703125 5.132812 0.109375 4.75 0.109375 Z M 4.75 0.109375 "/></g></g><g style="fill:#000000;fill-opacity:1;"><g transform="translate(196.283202, 214.66311)"><path style="stroke:none" d="M 0.625 0 L 0.625 -0.125 C 0.726562 -0.15625 0.8125 -0.207031 0.875 -0.28125 C 0.945312 -0.351562 1 -0.476562 1.03125 -0.65625 C 1.0625 -0.832031 1.078125 -1.097656 1.078125 -1.453125 L 1.078125 -6.53125 C 1.078125 -6.875 1.0625 -7.132812 1.03125 -7.3125 C 1 -7.5 0.945312 -7.628906 0.875 -7.703125 C 0.8125 -7.773438 0.726562 -7.820312 0.625 -7.84375 L 0.625 -7.96875 L 5.734375 -7.96875 L 5.875 -6.625 L 5.78125 -6.59375 C 5.601562 -7.039062 5.351562 -7.359375 5.03125 -7.546875 C 4.707031 -7.734375 4.285156 -7.828125 3.765625 -7.828125 L 1.71875 -7.828125 L 1.71875 -4.3125 L 3.59375 -4.3125 C 3.988281 -4.3125 4.289062 -4.335938 4.5 -4.390625 C 4.707031 -4.453125 4.851562 -4.535156 4.9375 -4.640625 C 5.019531 -4.742188 5.078125 -4.863281 5.109375 -5 L 5.234375 -5 L 5.234375 -3.484375 L 5.109375 -3.484375 C 5.078125 -3.628906 5.019531 -3.75 4.9375 -3.84375 C 4.851562 -3.945312 4.707031 -4.023438 4.5 -4.078125 C 4.289062 -4.140625 3.988281 -4.171875 3.59375 -4.171875 L 1.71875 -4.171875 L 1.71875 -0.609375 C 1.71875 -0.296875 1.867188 -0.140625 2.171875 -0.140625 L 4.078125 -0.140625 C 4.597656 -0.140625 5.015625 -0.222656 5.328125 -0.390625 C 5.640625 -0.566406 5.890625 -0.894531 6.078125 -1.375 L 6.1875 -1.359375 L 6.078125 0 Z M 0.625 0 "/></g></g><g style="fill:#000000;fill-opacity:1;"><g transform="translate(206.365893, 214.66311)"><path style="stroke:none" d="M 3.234375 0.109375 C 2.828125 0.109375 2.453125 0.0664062 2.109375 -0.015625 C 1.773438 -0.0976562 1.476562 -0.203125 1.21875 -0.328125 C 0.957031 -0.460938 0.75 -0.582031 0.59375 -0.6875 L 0.515625 -2.15625 L 0.625 -2.171875 C 0.75 -1.804688 0.921875 -1.460938 1.140625 -1.140625 C 1.359375 -0.816406 1.648438 -0.554688 2.015625 -0.359375 C 2.378906 -0.160156 2.835938 -0.0625 3.390625 -0.0625 C 3.742188 -0.0625 4.0625 -0.128906 4.34375 -0.265625 C 4.625 -0.410156 4.847656 -0.601562 5.015625 -0.84375 C 5.191406 -1.082031 5.28125 -1.351562 5.28125 -1.65625 C 5.28125 -1.9375 5.207031 -2.1875 5.0625 -2.40625 C 4.914062 -2.632812 4.722656 -2.828125 4.484375 -2.984375 C 4.253906 -3.148438 4.003906 -3.289062 3.734375 -3.40625 C 3.460938 -3.53125 3.203125 -3.644531 2.953125 -3.75 C 2.179688 -4.050781 1.613281 -4.363281 1.25 -4.6875 C 0.882812 -5.019531 0.703125 -5.453125 0.703125 -5.984375 C 0.703125 -6.410156 0.8125 -6.773438 1.03125 -7.078125 C 1.25 -7.390625 1.554688 -7.628906 1.953125 -7.796875 C 2.347656 -7.960938 2.800781 -8.046875 3.3125 -8.046875 C 3.945312 -8.046875 4.445312 -7.972656 4.8125 -7.828125 C 5.175781 -7.691406 5.425781 -7.578125 5.5625 -7.484375 L 5.609375 -6.328125 L 5.53125 -6.3125 C 5.40625 -6.570312 5.242188 -6.820312 5.046875 -7.0625 C 4.847656 -7.300781 4.585938 -7.492188 4.265625 -7.640625 C 3.941406 -7.796875 3.523438 -7.875 3.015625 -7.875 C 2.703125 -7.875 2.410156 -7.816406 2.140625 -7.703125 C 1.867188 -7.585938 1.648438 -7.410156 1.484375 -7.171875 C 1.316406 -6.941406 1.234375 -6.648438 1.234375 -6.296875 C 1.234375 -6.015625 1.296875 -5.769531 1.421875 -5.5625 C 1.554688 -5.363281 1.734375 -5.1875 1.953125 -5.03125 C 2.179688 -4.882812 2.425781 -4.75 2.6875 -4.625 C 2.957031 -4.5 3.21875 -4.382812 3.46875 -4.28125 C 3.925781 -4.101562 4.332031 -3.914062 4.6875 -3.71875 C 5.039062 -3.519531 5.316406 -3.285156 5.515625 -3.015625 C 5.722656 -2.753906 5.828125 -2.425781 5.828125 -2.03125 C 5.828125 -1.613281 5.707031 -1.242188 5.46875 -0.921875 C 5.226562 -0.597656 4.910156 -0.34375 4.515625 -0.15625 C 4.128906 0.0195312 3.703125 0.109375 3.234375 0.109375 Z M 3.234375 0.109375 "/></g></g><g style="fill:#000000;fill-opacity:1;"><g transform="translate(216.05047, 214.66311)"><path style="stroke:none" d="M 0.6875 1.3125 C 0.988281 1.15625 1.195312 0.960938 1.3125 0.734375 C 1.425781 0.515625 1.488281 0.265625 1.5 -0.015625 C 1.4375 0.0234375 1.359375 0.046875 1.265625 0.046875 C 1.140625 0.046875 1.023438 0 0.921875 -0.09375 C 0.828125 -0.1875 0.78125 -0.300781 0.78125 -0.4375 C 0.78125 -0.582031 0.832031 -0.703125 0.9375 -0.796875 C 1.039062 -0.898438 1.164062 -0.953125 1.3125 -0.953125 C 1.507812 -0.953125 1.660156 -0.875 1.765625 -0.71875 C 1.867188 -0.570312 1.914062 -0.390625 1.90625 -0.171875 C 1.90625 0.179688 1.789062 0.5 1.5625 0.78125 C 1.34375 1.0625 1.066406 1.265625 0.734375 1.390625 Z M 0.6875 1.3125 "/></g></g><g style="fill:#000000;fill-opacity:1;"><g transform="translate(222.151988, 214.66311)"><path style="stroke:none" d=""/></g></g><g style="fill:#000000;fill-opacity:1;"><g transform="translate(228.105636, 214.66311)"><path style="stroke:none" d="M 0.625 0 L 0.625 -0.125 C 0.726562 -0.15625 0.8125 -0.207031 0.875 -0.28125 C 0.945312 -0.351562 1 -0.476562 1.03125 -0.65625 C 1.0625 -0.832031 1.078125 -1.097656 1.078125 -1.453125 L 1.078125 -6.53125 C 1.078125 -6.875 1.0625 -7.132812 1.03125 -7.3125 C 1 -7.5 0.945312 -7.628906 0.875 -7.703125 C 0.8125 -7.773438 0.726562 -7.820312 0.625 -7.84375 L 0.625 -7.96875 L 5.734375 -7.96875 L 5.875 -6.625 L 5.78125 -6.59375 C 5.601562 -7.039062 5.351562 -7.359375 5.03125 -7.546875 C 4.707031 -7.734375 4.285156 -7.828125 3.765625 -7.828125 L 1.71875 -7.828125 L 1.71875 -4.3125 L 3.59375 -4.3125 C 3.988281 -4.3125 4.289062 -4.335938 4.5 -4.390625 C 4.707031 -4.453125 4.851562 -4.535156 4.9375 -4.640625 C 5.019531 -4.742188 5.078125 -4.863281 5.109375 -5 L 5.234375 -5 L 5.234375 -3.484375 L 5.109375 -3.484375 C 5.078125 -3.628906 5.019531 -3.75 4.9375 -3.84375 C 4.851562 -3.945312 4.707031 -4.023438 4.5 -4.078125 C 4.289062 -4.140625 3.988281 -4.171875 3.59375 -4.171875 L 1.71875 -4.171875 L 1.71875 -0.609375 C 1.71875 -0.296875 1.867188 -0.140625 2.171875 -0.140625 L 4.078125 -0.140625 C 4.597656 -0.140625 5.015625 -0.222656 5.328125 -0.390625 C 5.640625 -0.566406 5.890625 -0.894531 6.078125 -1.375 L 6.1875 -1.359375 L 6.078125 0 Z M 0.625 0 "/></g></g><g style="fill:#000000;fill-opacity:1;"><g transform="translate(238.188326, 214.66311)"><path style="stroke:none" d="M 0.625 0 L 0.625 -0.125 C 0.726562 -0.15625 0.8125 -0.207031 0.875 -0.28125 C 0.945312 -0.351562 1 -0.476562 1.03125 -0.65625 C 1.0625 -0.832031 1.078125 -1.097656 1.078125 -1.453125 L 1.078125 -6.53125 C 1.078125 -6.875 1.0625 -7.132812 1.03125 -7.3125 C 1 -7.5 0.945312 -7.628906 0.875 -7.703125 C 0.8125 -7.773438 0.726562 -7.820312 0.625 -7.84375 L 0.625 -7.96875 L 2.171875 -7.96875 L 2.171875 -7.84375 C 2.066406 -7.820312 1.976562 -7.773438 1.90625 -7.703125 C 1.84375 -7.628906 1.796875 -7.5 1.765625 -7.3125 C 1.734375 -7.132812 1.71875 -6.875 1.71875 -6.53125 L 1.71875 -0.609375 C 1.71875 -0.296875 1.867188 -0.140625 2.171875 -0.140625 L 4 -0.140625 C 4.34375 -0.140625 4.617188 -0.171875 4.828125 -0.234375 C 5.046875 -0.304688 5.222656 -0.414062 5.359375 -0.5625 C 5.503906 -0.707031 5.632812 -0.90625 5.75 -1.15625 L 5.859375 -1.125 L 5.78125 0 Z M 0.625 0 "/></g></g><g style="fill:#000000;fill-opacity:1;"><g transform="translate(247.747789, 214.66311)"><path style="stroke:none" d="M 0.625 0 L 0.625 -0.125 C 0.726562 -0.15625 0.8125 -0.207031 0.875 -0.28125 C 0.945312 -0.351562 1 -0.476562 1.03125 -0.65625 C 1.0625 -0.832031 1.078125 -1.097656 1.078125 -1.453125 L 1.078125 -6.53125 C 1.078125 -6.875 1.0625 -7.132812 1.03125 -7.3125 C 1 -7.5 0.945312 -7.628906 0.875 -7.703125 C 0.8125 -7.773438 0.726562 -7.820312 0.625 -7.84375 L 0.625 -7.96875 L 5.734375 -7.96875 L 5.875 -6.625 L 5.78125 -6.59375 C 5.601562 -7.039062 5.351562 -7.359375 5.03125 -7.546875 C 4.707031 -7.734375 4.285156 -7.828125 3.765625 -7.828125 L 1.71875 -7.828125 L 1.71875 -4.3125 L 3.59375 -4.3125 C 3.988281 -4.3125 4.289062 -4.335938 4.5 -4.390625 C 4.707031 -4.453125 4.851562 -4.535156 4.9375 -4.640625 C 5.019531 -4.742188 5.078125 -4.863281 5.109375 -5 L 5.234375 -5 L 5.234375 -3.484375 L 5.109375 -3.484375 C 5.078125 -3.628906 5.019531 -3.75 4.9375 -3.84375 C 4.851562 -3.945312 4.707031 -4.023438 4.5 -4.078125 C 4.289062 -4.140625 3.988281 -4.171875 3.59375 -4.171875 L 1.71875 -4.171875 L 1.71875 -0.609375 C 1.71875 -0.296875 1.867188 -0.140625 2.171875 -0.140625 L 4.078125 -0.140625 C 4.597656 -0.140625 5.015625 -0.222656 5.328125 -0.390625 C 5.640625 -0.566406 5.890625 -0.894531 6.078125 -1.375 L 6.1875 -1.359375 L 6.078125 0 Z M 0.625 0 "/></g></g><g style="fill:#000000;fill-opacity:1;"><g transform="translate(257.83048, 214.66311)"><path style="stroke:none" d="M 0.796875 -6.625 C 0.671875 -6.957031 0.554688 -7.203125 0.453125 -7.359375 C 0.359375 -7.523438 0.269531 -7.640625 0.1875 -7.703125 C 0.101562 -7.773438 0.0234375 -7.820312 -0.046875 -7.84375 L -0.046875 -7.96875 L 1.390625 -7.96875 L 1.390625 -7.84375 C 1.285156 -7.820312 1.21875 -7.773438 1.1875 -7.703125 C 1.15625 -7.640625 1.160156 -7.523438 1.203125 -7.359375 C 1.253906 -7.203125 1.335938 -6.957031 1.453125 -6.625 L 3.796875 -0.671875 L 6.078125 -6.625 C 6.210938 -6.988281 6.269531 -7.273438 6.25 -7.484375 C 6.238281 -7.691406 6.132812 -7.8125 5.9375 -7.84375 L 5.9375 -7.96875 L 7.171875 -7.96875 L 7.171875 -7.84375 C 7.085938 -7.820312 6.992188 -7.773438 6.890625 -7.703125 C 6.796875 -7.640625 6.695312 -7.523438 6.59375 -7.359375 C 6.488281 -7.191406 6.367188 -6.945312 6.234375 -6.625 L 3.65625 0.109375 L 3.453125 0.109375 Z M 0.796875 -6.625 "/></g></g><g style="fill:#000000;fill-opacity:1;"><g transform="translate(268.356794, 214.66311)"><path style="stroke:none" d="M -0.140625 0 L -0.140625 -0.125 C -0.0351562 -0.15625 0.0625 -0.203125 0.15625 -0.265625 C 0.25 -0.328125 0.347656 -0.441406 0.453125 -0.609375 C 0.566406 -0.773438 0.6875 -1.019531 0.8125 -1.34375 L 3.1875 -7.203125 C 3.25 -7.347656 3.242188 -7.5 3.171875 -7.65625 L 3.09375 -7.796875 L 3.671875 -8.046875 L 6.453125 -1.328125 C 6.585938 -1.015625 6.703125 -0.773438 6.796875 -0.609375 C 6.898438 -0.441406 6.992188 -0.328125 7.078125 -0.265625 C 7.160156 -0.203125 7.238281 -0.15625 7.3125 -0.125 L 7.3125 0 L 5.875 0 L 5.875 -0.125 C 5.976562 -0.15625 6.046875 -0.203125 6.078125 -0.265625 C 6.109375 -0.328125 6.097656 -0.441406 6.046875 -0.609375 C 6.003906 -0.773438 5.914062 -1.015625 5.78125 -1.328125 L 5.078125 -3.046875 L 1.6875 -3.046875 L 1 -1.34375 C 0.851562 -0.988281 0.785156 -0.707031 0.796875 -0.5 C 0.804688 -0.289062 0.910156 -0.164062 1.109375 -0.125 L 1.109375 0 Z M 1.75 -3.203125 L 5.015625 -3.203125 L 3.359375 -7.203125 Z M 1.75 -3.203125 "/></g></g><g style="fill:#000000;fill-opacity:1;"><g transform="translate(279.065099, 214.66311)"><path style="stroke:none" d="M 2.40625 0 L 2.40625 -0.125 C 2.507812 -0.15625 2.59375 -0.207031 2.65625 -0.28125 C 2.726562 -0.351562 2.78125 -0.476562 2.8125 -0.65625 C 2.84375 -0.832031 2.859375 -1.097656 2.859375 -1.453125 L 2.859375 -7.828125 L 2.078125 -7.828125 C 1.734375 -7.828125 1.453125 -7.789062 1.234375 -7.71875 C 1.015625 -7.65625 0.832031 -7.550781 0.6875 -7.40625 C 0.550781 -7.257812 0.425781 -7.066406 0.3125 -6.828125 L 0.21875 -6.84375 L 0.28125 -7.96875 L 6.0625 -7.96875 L 6.125 -6.84375 L 6.03125 -6.828125 C 5.914062 -7.066406 5.785156 -7.257812 5.640625 -7.40625 C 5.503906 -7.550781 5.328125 -7.65625 5.109375 -7.71875 C 4.890625 -7.789062 4.609375 -7.828125 4.265625 -7.828125 L 3.515625 -7.828125 L 3.515625 -1.453125 C 3.515625 -1.097656 3.523438 -0.832031 3.546875 -0.65625 C 3.578125 -0.476562 3.625 -0.351562 3.6875 -0.28125 C 3.757812 -0.207031 3.851562 -0.15625 3.96875 -0.125 L 3.96875 0 Z M 2.40625 0 "/></g></g><g style="fill:#000000;fill-opacity:1;"><g transform="translate(288.874805, 214.66311)"><path style="stroke:none" d="M 0.625 0 L 0.625 -0.125 C 0.726562 -0.15625 0.8125 -0.207031 0.875 -0.28125 C 0.945312 -0.351562 1 -0.476562 1.03125 -0.65625 C 1.0625 -0.832031 1.078125 -1.097656 1.078125 -1.453125 L 1.078125 -6.53125 C 1.078125 -6.875 1.0625 -7.132812 1.03125 -7.3125 C 1 -7.5 0.945312 -7.628906 0.875 -7.703125 C 0.8125 -7.773438 0.726562 -7.820312 0.625 -7.84375 L 0.625 -7.96875 L 5.734375 -7.96875 L 5.875 -6.625 L 5.78125 -6.59375 C 5.601562 -7.039062 5.351562 -7.359375 5.03125 -7.546875 C 4.707031 -7.734375 4.285156 -7.828125 3.765625 -7.828125 L 1.71875 -7.828125 L 1.71875 -4.3125 L 3.59375 -4.3125 C 3.988281 -4.3125 4.289062 -4.335938 4.5 -4.390625 C 4.707031 -4.453125 4.851562 -4.535156 4.9375 -4.640625 C 5.019531 -4.742188 5.078125 -4.863281 5.109375 -5 L 5.234375 -5 L 5.234375 -3.484375 L 5.109375 -3.484375 C 5.078125 -3.628906 5.019531 -3.75 4.9375 -3.84375 C 4.851562 -3.945312 4.707031 -4.023438 4.5 -4.078125 C 4.289062 -4.140625 3.988281 -4.171875 3.59375 -4.171875 L 1.71875 -4.171875 L 1.71875 -0.609375 C 1.71875 -0.296875 1.867188 -0.140625 2.171875 -0.140625 L 4.078125 -0.140625 C 4.597656 -0.140625 5.015625 -0.222656 5.328125 -0.390625 C 5.640625 -0.566406 5.890625 -0.894531 6.078125 -1.375 L 6.1875 -1.359375 L 6.078125 0 Z M 0.625 0 "/></g></g><g style="fill:#000000;fill-opacity:1;"><g transform="translate(298.957496, 214.66311)"><path style="stroke:none" d="M 0.625 0 L 0.625 -0.125 C 0.726562 -0.15625 0.8125 -0.207031 0.875 -0.28125 C 0.945312 -0.351562 1 -0.476562 1.03125 -0.65625 C 1.0625 -0.832031 1.078125 -1.097656 1.078125 -1.453125 L 1.078125 -6.53125 C 1.078125 -6.875 1.0625 -7.132812 1.03125 -7.3125 C 1 -7.5 0.945312 -7.628906 0.875 -7.703125 C 0.8125 -7.773438 0.726562 -7.820312 0.625 -7.84375 L 0.625 -7.96875 L 3.21875 -7.96875 C 3.96875 -7.96875 4.613281 -7.863281 5.15625 -7.65625 C 5.707031 -7.445312 6.160156 -7.164062 6.515625 -6.8125 C 6.878906 -6.457031 7.148438 -6.046875 7.328125 -5.578125 C 7.515625 -5.117188 7.609375 -4.632812 7.609375 -4.125 C 7.609375 -3.539062 7.515625 -3 7.328125 -2.5 C 7.140625 -2 6.863281 -1.5625 6.5 -1.1875 C 6.132812 -0.8125 5.695312 -0.519531 5.1875 -0.3125 C 4.6875 -0.101562 4.125 0 3.5 0 Z M 1.71875 -0.984375 C 1.71875 -0.722656 1.765625 -0.519531 1.859375 -0.375 C 1.953125 -0.226562 2.148438 -0.15625 2.453125 -0.15625 L 3.53125 -0.15625 C 4.613281 -0.15625 5.441406 -0.46875 6.015625 -1.09375 C 6.597656 -1.726562 6.890625 -2.625 6.890625 -3.78125 C 6.890625 -4.332031 6.796875 -4.851562 6.609375 -5.34375 C 6.429688 -5.832031 6.164062 -6.257812 5.8125 -6.625 C 5.46875 -7 5.046875 -7.289062 4.546875 -7.5 C 4.046875 -7.71875 3.476562 -7.828125 2.84375 -7.828125 L 1.71875 -7.828125 Z M 1.71875 -0.984375 "/></g></g></g></svg>